<?xml version="1.0" standalone="no"?>
<!DOCTYPE svg PUBLIC "-//W3C//DTD SVG 1.1//EN" "http://www.w3.org/Graphics/SVG/1.1/DTD/svg11.dtd" >
<svg xmlns="http://www.w3.org/2000/svg">
<metadata>
Created by FontForge 20120731 at Tue Dec 16 14:20:02 2014
 By Ads
</metadata>
<defs>
<font id="iconfont" horiz-adv-x="1024" >
  <font-face 
    font-family="iconfont"
    font-weight="500"
    font-stretch="normal"
    units-per-em="1024"
    panose-1="2 0 6 3 0 0 0 0 0 0"
    ascent="812"
    descent="-212"
    x-height="792"
    bbox="-1 -227 1052 812"
    underline-thickness="50"
    underline-position="-100"
    unicode-range="U+0078-E651"
  />
<missing-glyph horiz-adv-x="374" 
d="M34 0v682h272v-682h-272zM68 34h204v614h-204v-614z" />
    <glyph glyph-name=".notdef" horiz-adv-x="374" 
d="M34 0v682h272v-682h-272zM68 34h204v614h-204v-614z" />
    <glyph glyph-name=".null" horiz-adv-x="0" 
 />
    <glyph glyph-name="nonmarkingreturn" horiz-adv-x="341" 
 />
    <glyph glyph-name="x" unicode="x" horiz-adv-x="1001" 
d="M281 543q-27 -1 -53 -1h-83q-18 0 -36.5 -6t-32.5 -18.5t-23 -32t-9 -45.5v-76h912v41q0 16 -0.5 30t-0.5 18q0 13 -5 29t-17 29.5t-31.5 22.5t-49.5 9h-133v-97h-438v97zM955 310v-52q0 -23 0.5 -52t0.5 -58t-10.5 -47.5t-26 -30t-33 -16t-31.5 -4.5q-14 -1 -29.5 -0.5
t-29.5 0.5h-32l-45 128h-439l-44 -128h-29h-34q-20 0 -45 1q-25 0 -41 9.5t-25.5 23t-13.5 29.5t-4 30v167h911zM163 247q-12 0 -21 -8.5t-9 -21.5t9 -21.5t21 -8.5q13 0 22 8.5t9 21.5t-9 21.5t-22 8.5zM316 123q-8 -26 -14 -48q-5 -19 -10.5 -37t-7.5 -25t-3 -15t1 -14.5
t9.5 -10.5t21.5 -4h37h67h81h80h64h36q23 0 34 12t2 38q-5 13 -9.5 30.5t-9.5 34.5q-5 19 -11 39h-368zM336 498v228q0 11 2.5 23t10 21.5t20.5 15.5t34 6h188q31 0 51.5 -14.5t20.5 -52.5v-227h-327z" />
    <glyph glyph-name="uniE600" unicode="&#xe600;" horiz-adv-x="1000" 
d="M500 800q-136 0 -251 -67t-182 -182t-67 -251t67 -251t182 -182t251 -67t251 67t182 182t67 251t-67 251t-182 182t-251 67zM500 -106q-110 0 -204 54t-148 148t-54 204t54 204t148 148t204 54t204 -54t148 -148t54 -204t-54 -204t-148 -148t-204 -54zM438 550h124v-125
h-124v125zM625 50h-250v62h63v188h-63v62h187v-250h63v-62z" />
    <glyph glyph-name="uniE601" unicode="&#xe601;" 
d="M511 717q113 0 208.5 -56t151.5 -151.5t56 -208.5t-56 -208.5t-151.5 -151.5t-208.5 -56t-208.5 56t-151.5 151.5t-56 208.5t56 208.5t151.5 151.5t208.5 56zM511 806q-103 0 -196.5 -40t-161 -107.5t-107.5 -161t-40 -196.5t40 -196.5t107.5 -161t161 -107.5t196.5 -40
t196.5 40t161 107.5t107.5 161t40 196.5t-40 196.5t-107.5 161t-161 107.5t-196.5 40zM206 316l565 211l-211 -564l-78 275z" />
    <glyph glyph-name="uniE602" unicode="&#xe602;" 
d="M513 718q113 0 208.5 -56t151.5 -151.5t56 -208.5t-56 -208.5t-151.5 -151.5t-208.5 -56t-208.5 56t-151.5 151.5t-56 208.5t56 208.5t151.5 151.5t208.5 56zM513 807q-103 0 -196.5 -40t-161 -107.5t-107.5 -161t-40 -196.5t40 -196.5t107.5 -161t161 -107.5t196.5 -40
t196.5 40t161 107.5t107.5 161t40 196.5t-40 196.5t-107.5 161t-161 107.5t-196.5 40zM760 591l-181 -308h143v-68h-166v-94h166v-69h-166v-137h-86v137h-172v69h172v94h-172v68h147l-179 308h96q126 -230 153 -291h1q10 25 51 102l102 189h91z" />
    <glyph glyph-name="uniE603" unicode="&#xe603;" 
d="M511 719q113 0 208.5 -56t151.5 -152t56 -208.5t-56 -208.5t-151.5 -151.5t-208.5 -55.5t-208.5 55.5t-151.5 151.5t-56 208.5t56 208.5t151.5 152t208.5 56zM511 808q-103 0 -196.5 -40t-161 -108t-107.5 -161.5t-40 -196t40 -196t107.5 -161t161 -107.5t196.5 -40
t196.5 40t161 107.5t107.5 161t40 196t-40 196t-107.5 161.5t-161 108t-196.5 40zM749 347h-570v76h510h60v-76zM844 347h-140v140zM274 258h570v-75h-511h-59v75zM179 258h139v-139z" />
    <glyph glyph-name="uniE604" unicode="&#xe604;" 
d="M511 715q113 0 208.5 -55.5t151.5 -151.5t56 -209t-56 -208.5t-151.5 -151.5t-208.5 -56t-208.5 56t-151.5 151.5t-56 208.5t56 209t151.5 151.5t208.5 55.5zM511 804q-103 0 -196.5 -40t-161 -107.5t-107.5 -161t-40 -196.5t40 -196.5t107.5 -161t161 -107.5t196.5 -40
t196.5 40t161 107.5t107.5 161t40 196.5t-40 196.5t-107.5 161t-161 107.5t-196.5 40zM665 -16q2 7 5 19t17.5 48t33 70t53 78.5t74.5 80.5l-117 -32q0 6 -1 17.5t-5.5 45t-11.5 64t-21 68t-32 65t-47 48t-65 22.5h-14q-10 0 -38.5 -5t-55.5 -15.5t-62.5 -35t-65.5 -59
t-58 -92t-45 -128.5q5 5 12 13.5t30 33.5t45.5 45.5t54 43.5t60 36t59.5 14.5t55.5 -14.5t45 -56.5t31.5 -105.5l-118 28q145 -145 181 -297z" />
    <glyph glyph-name="uniE605" unicode="&#xe605;" 
d="M509 715q113 0 208.5 -55.5t151.5 -151.5t56 -209t-56 -208.5t-151.5 -151.5t-208.5 -56t-209 56t-151.5 151.5t-55.5 208.5t55.5 209t151.5 151.5t209 55.5zM509 804q-103 0 -196.5 -40t-161 -107.5t-107.5 -161t-40 -196.5t40 -196.5t107.5 -161t161 -107.5t196 -40
t196 40t161.5 107.5t108 161t40 196.5t-40 196.5t-108 161t-161.5 107.5t-195.5 40zM507 416q-4 6 -10.5 15.5t-27 33t-42 40.5t-53 28t-62 6t-67 -35.5t-69.5 -87.5q-2 -4 -3.5 -11t-5 -28t-3.5 -41.5t5.5 -48t17.5 -51t36.5 -47t59.5 -38.5q8 -5 21.5 -13.5t49.5 -34
t64.5 -49.5t55 -55.5t33.5 -56.5q3 6 8.5 15.5t26 36.5t43 50.5t59.5 50.5t76 43q4 2 11 6t26 17.5t35 29.5t32.5 41.5t23.5 53t3.5 65t-22.5 77.5l-5 8q-5 8 -14.5 20t-23 26.5t-31 25.5t-38 19.5t-45 6.5t-50.5 -12.5t-56 -37.5t-59 -68z" />
    <glyph glyph-name="uniE606" unicode="&#xe606;" 
d="M509.5 717q112.5 0 208.5 -56t151.5 -151.5t55.5 -208.5t-55.5 -208.5t-151.5 -151.5t-208.5 -56t-208.5 56t-152 151.5t-56 208.5t56 208.5t152 151.5t208.5 56zM509 806q-102 0 -195.5 -40t-161.5 -107.5t-108 -161t-40 -196.5t40 -196.5t108 -161t161.5 -107.5
t196 -40t196 40t161 107.5t107.5 161t40 196.5t-40 196.5t-107.5 161t-161 107.5t-196.5 40zM373 -14q-1 7 -4.5 19t-18 47.5t-33 69.5t-52.5 79t-75 81l117 -33q1 7 1.5 18.5t5 44.5t11.5 63.5t21 68.5t32.5 65.5t47.5 47.5t64 23h14q10 0 38.5 -5.5t55.5 -15.5t63 -35
t65.5 -59t57.5 -91.5t45 -129.5q-4 6 -11.5 14.5t-30.5 33t-45.5 45.5t-54 44t-60 36t-59.5 14t-55.5 -14.5t-45 -56.5t-31.5 -105l118 28q-144 -143 -181 -297z" />
    <glyph glyph-name="uniE607" unicode="&#xe607;" 
d="M48 738q6 -2 16.5 -6.5t43 -15t65 -16.5t78.5 -6.5t88 9t89 35.5t86 68q4 -5 11.5 -12t33.5 -26t53.5 -34t70.5 -27.5t86.5 -14.5t98.5 12t110 46l38 -127q-3 -1 -7 -4.5t-15 -16t-18.5 -27t-12 -39.5t-1.5 -53q1 -7 2 -20t0.5 -53.5t-4.5 -81t-16.5 -96.5t-32.5 -106
t-55 -104t-81 -96.5t-114 -77.5t-151 -52q-6 1 -17 3.5t-43.5 13t-64 25.5t-73.5 43t-77.5 63t-70.5 89t-58 116.5t-34 149t-4 184.5q-1 2 0 10.5t-2 26t-8 35.5t-18.5 37.5t-33.5 32.5zM189 243l141 -217q0 -1 1.5 -4t6.5 -8t11.5 -7t17.5 2.5t24 16.5q20 20 130 131.5
t211 212.5l100 101q0 2 1 4.5t2.5 10.5t1 14t-3 12.5t-8 9t-16 0.5t-26.5 -10l-419 -396l-122 176q-32 26 -47 12q-14 -12 -6 -61z" />
    <glyph glyph-name="uniE608" unicode="&#xe608;" 
d="M1016 112q0 -131 -92.5 -223.5t-223.5 -92.5h-378q-131 0 -223.5 92.5t-92.5 223.5v378q0 131 92.5 223.5t223.5 92.5h378q131 0 223.5 -92.5t92.5 -223.5v-378zM1016 506h-1010v-126h1010v126zM512 290h-379v-126h379v126zM512 104h-379v-127h379v127z" />
    <glyph glyph-name="uniE609" unicode="&#xe609;" 
d="M1016 -78q0 -52 -37 -89t-89 -37h-757q-53 0 -90 37t-37 89v757q0 53 37 90t90 37h757q52 0 89 -37t37 -90v-757zM953 495q0 53 -37 90t-89 37h-631q-53 0 -90 -37t-37 -90v-504q0 -53 37 -90t90 -37h631q52 0 89 37t37 90v504zM890 451q0 -26 -18.5 -44.5t-44.5 -18.5
h-631q-27 0 -45 18.5t-18 44.5t18 44.5t45 18.5h631q26 0 44.5 -18.5t18.5 -44.5zM281 236q0 -26 -18.5 -44.5t-44.5 -18.5t-44.5 18.5t-18.5 44.5t18.5 44.5t44.5 18.5t44.5 -18.5t18.5 -44.5zM875 236q0 -26 -18.5 -44.5t-44.5 -18.5h-379q-26 0 -44.5 18.5t-18.5 44.5
t18.5 44.5t44.5 18.5h379q26 0 44.5 -18.5t18.5 -44.5zM282 28q0 -26 -18.5 -44.5t-44.5 -18.5t-44.5 18.5t-18.5 44.5t18.5 44.5t44.5 18.5t44.5 -18.5t18.5 -44.5zM876 28q0 -26 -18.5 -44.5t-44.5 -18.5h-379q-26 0 -44.5 18.5t-18.5 44.5t18.5 44.5t44.5 18.5h379
q26 0 44.5 -18.5t18.5 -44.5z" />
    <glyph glyph-name="uniE60A" unicode="&#xe60a;" 
d="M789 475q-14 -26 -72 -53q48 -68 48 -151q0 -106 -75 -181t-181 -75t-181.5 75t-75.5 181t75.5 181.5t181.5 75.5q85 0 154 -52q17 49 55 71q-93 70 -209 70q-94 0 -173.5 -46t-126 -126t-46.5 -174t46.5 -173.5t126 -125.5t173.5 -46t173.5 46t126 125.5t46.5 173.5
q0 113 -66 204zM664 348zM664 348v0v0zM594 422h-1l-1 1l2 -2v1zM664 348q-1 0 -2.5 -1.5t-1.5 -2.5q1 2 4 4zM664 348q-3 -2 -4 -4q-7 -6 -68 -69v-2v-2q0 -34 -24.5 -58.5t-59 -24.5t-59 24.5t-24.5 59t24.5 59t59.5 24.5q7 0 14 -1h1l1 -1q66 65 69 68l-2 2
q-39 21 -83 21q-72 0 -122.5 -50.5t-50.5 -122t50.5 -122.5t122.5 -51t122.5 51t50.5 122q0 41 -18 77zM877 549q-20 -7 -28 -17q89 -115 89 -261q0 -116 -57.5 -214.5t-156.5 -156t-215 -57.5t-215 57.5t-156.5 156t-57.5 215t57.5 215t156.5 156t215 57.5q148 0 265 -92
q3 -2 7 -6q3 6 6 17.5t5 16.5q-1 0 -1 0.5t-1 0.5q-124 96 -281 96q-94 0 -179.5 -36.5t-147 -98.5t-98 -147.5t-36.5 -179t36.5 -179t98 -147.5t147 -98.5t179.5 -36.5t179.5 36.5t147 98.5t98 147.5t36.5 178.5q0 155 -93 278zM774 554l-281 -282l24 -24l281 281
q-10 14 -24 25zM946 725l-43 -42q2 -3 9.5 -9.5t10.5 -11.5q0 -1 4 -5l43 44zM935 646q12 -13 12 -30t-12 -29l-87 -46q-12 -12 -29 -12t-29 12l-4 4q-12 12 -12 29t12 29l46 87q12 13 29 13t30 -13z" />
    <glyph glyph-name="uniE60B" unicode="&#xe60b;" 
d="M146 280q0 73 52 125t125 52h294v-118l235 235h-235h-294q-122 0 -208 -86t-86 -208t86 -208l83 83q-52 52 -52 125zM884 488l-83 -83q51 -52 51 -125t-51.5 -124.5t-124.5 -51.5h-294v117l-236 -235h236h294q122 0 208 86t86 208t-86 208z" />
    <glyph glyph-name="uniE60C" unicode="&#xe60c;" 
d="M382 -158h-2q-13 1 -21.5 10.5t-8.5 22.5q2 25 4.5 50.5t10 66.5t18 73t29 60t42.5 37q49 18 100 -34l13 -14q28 -29 34 -30q14 4 84 105q47 68 88.5 104.5t84.5 30.5q66 -9 107 -125q4 -12 -2 -23.5t-18 -16t-23.5 1.5t-16.5 18q-27 80 -55 83q-35 4 -114 -109
q-51 -75 -78 -102t-53 -30q-16 -1 -31 6.5t-24.5 16t-27.5 27.5l-13 13q-23 23 -33 20q-22 -9 -40.5 -80.5t-22.5 -151.5q-1 -12 -10 -21t-21 -9zM513 180q-35 0 -60 25t-25 60.5t25 60.5t60 25t60 -25t25 -60.5t-25 -60.5t-60 -25zM513 309q-18 0 -30.5 -13t-12.5 -30.5
t12.5 -30.5t30.5 -13t31 13t13 30.5t-13 30.5t-31 13zM501 -197q-99 0 -188.5 38.5t-154.5 103.5t-103.5 154.5t-38.5 188.5t38.5 188.5t103.5 154.5t154.5 103.5t188 38.5t188.5 -38.5t155 -103.5t103.5 -154.5t38.5 -188.5q0 -120 -56 -226.5t-155 -174.5q-14 -9 -30.5 -6
t-26 17t-6.5 30t17 26q83 56 130 145t47 189q0 110 -54.5 203t-147.5 147.5t-203 54.5t-203 -54.5t-147.5 -147.5t-54.5 -203t54.5 -203t147.5 -147.5t203 -54.5q17 0 28.5 -11.5t11.5 -28.5t-11.5 -28.5t-28.5 -11.5zM204 92q-7 0 -13 5t-7 12l-67 430q-2 9 4.5 16.5
t16.5 7.5h627q9 0 15 -6t6 -15t-6 -15t-15 -6h-603l63 -405q1 -9 -4 -16t-14 -8h-3zM310 -145q-11 0 -20 7.5t-11 18.5l-82 576q-2 15 7.5 25.5t23.5 10.5h690q13 0 22.5 -9t9.5 -22t-9.5 -22t-22.5 -9h-654l77 -541q2 -13 -6 -23t-20 -12h-5z" />
    <glyph glyph-name="uniE60D" unicode="&#xe60d;" 
d="M625 382h-262q-13 0 -23 9.5t-10 23t10 23t23 9.5h262q14 0 23.5 -9.5t9.5 -23t-9.5 -23t-23.5 -9.5zM563 251h-200q-13 0 -23 9.5t-10 23t10 23t23 9.5h200q13 0 23 -9.5t10 -23t-10 -23t-23 -9.5zM955 349q0 106 -61.5 197t-167 143.5t-230 52.5t-230 -52.5
t-167 -143.5t-61.5 -197q0 -89 46.5 -169.5t130.5 -138.5q11 -7 24.5 -4.5t21 13.5t5 24.5t-13.5 21.5q-71 48 -110 114t-39 139q0 89 53 164.5t143.5 119t197 43.5t197 -43.5t143 -119t52.5 -164.5t-52.5 -164.5t-143 -119t-197.5 -43.5q-1 0 -3 -0.5t-2 -1.5
q-12 3 -22.5 -3t-14.5 -17q-9 -26 -96 -76q18 60 3 81q-11 16 -30 16q-14 0 -23.5 -9.5t-9.5 -22.5q0 -9 4 -17q-6 -33 -34 -102q-8 -20 8 -36q10 -9 23 -9q7 0 13 3q148 66 192 128q123 2 226.5 55t164 143t60.5 195z" />
    <glyph glyph-name="uniE60E" unicode="&#xe60e;" 
d="M497 733q-91 0 -174 -35.5t-143 -95.5t-95.5 -143.5t-35.5 -174.5t35.5 -174t95.5 -143t143 -95.5t174 -35.5t174.5 35.5t143.5 95.5t95.5 143t35.5 174t-35.5 174.5t-95.5 143.5t-143.5 95.5t-174.5 35.5zM807 393l-291 -291l-77 -77q-6 -6 -14.5 -6t-15.5 6l-77 77
l-145 145q-6 6 -6 15t6 15l77 76q6 7 14.5 6.5t14.5 -6.5l131 -130l277 277q6 6 14.5 6t14.5 -6l77 -77q6 -6 6 -15t-6 -15zM807 393z" />
    <glyph glyph-name="uniE60F" unicode="&#xe60f;" 
d="M813 602q-65 64 -148.5 97.5t-168.5 33.5t-168.5 -33.5t-148 -98t-98 -148t-33.5 -168.5t33.5 -168.5t97.5 -147.5q86 -86 201.5 -116.5t231 0t201.5 116.5q64 64 97.5 147.5t33.5 168.5t-33.5 168.5t-97.5 148.5zM749 126q2 -3 2 -7t-2 -6l-80 -80q-3 -3 -7 -3t-7 3
l-159 159l-159 -159q-3 -3 -7 -3t-6 3l-80 80q-3 2 -3 6t3 7l159 159l-159 160q-3 2 -3 6t3 7l80 80q3 2 6.5 2t6.5 -2l159 -160l7 7l153 153q3 2 6.5 2t6.5 -2l80 -80q2 -3 2 -7t-2 -6l-160 -160zM749 126z" />
    <glyph glyph-name="uniE610" unicode="&#xe610;" 
d="M116 218q-25 -59 -28.5 -108.5t16.5 -59.5q14 -7 34.5 7.5t40.5 45.5q16 -66 76 -116q-31 -12 -48.5 -29t-17.5 -38q0 -33 46 -57t112 -24q58 0 102.5 19.5t53.5 48.5h9h10q9 -29 53 -48.5t103 -19.5q65 0 111 24t46 57q0 21 -17.5 38t-48.5 29q60 50 76 116
q21 -31 41 -45.5t34 -7.5q20 10 16.5 59.5t-28.5 108.5q-20 46 -44.5 78t-45.5 40q1 6 1 12q0 36 -18 64v4q0 17 -7 31q-5 125 -81.5 207t-200.5 82t-200.5 -82t-81.5 -207q-7 -14 -7 -31v-4q-18 -28 -18 -64q0 -6 1 -12q-21 -8 -45.5 -40t-44.5 -78z" />
    <glyph glyph-name="uniE611" unicode="&#xe611;" 
d="M437 324q77 100 215 114q2 1 48 3v2v2q-19 91 -92 153q-93 79 -220 79q-150 1 -248 -99q-64 -64 -74 -150t37 -162q30 -47 81 -84q-22 -74 -27 -90q0 -1 1 -13q12 2 13 2l45 27q30 18 46 27q5 3 12 2t32.5 -6.5t39.5 -7.5q3 -1 51 -3q0 1 -0.5 3.5t-1 3.5t-0.5 2
q-24 108 42 195zM512 530.5q17 -0.5 29 -12.5t11.5 -29t-12.5 -29t-28.5 -11.5t-28.5 12.5t-12 29t12 29t29 11.5zM261 448.5q-17 0.5 -29 12.5t-12 29t12.5 29t29 11.5t28.5 -12.5t12 -29t-12 -29t-29 -11.5zM873 12q83 67 86 165.5t-77 168.5q-79 70 -193 73
q-112 -2 -188 -61q-94 -74 -90 -183q3 -102 90 -166q128 -96 290 -43q10 3 18 -2q28 -17 67 -39l11 -2l1 12q-11 34 -20 58q-4 12 5 19zM585 237q-15 0 -25.5 10.5t-10.5 26t10.5 26t25.5 10.5t26 -10.5t11 -25.5t-11 -26t-26 -11zM784 237q-15 0 -25.5 10.5t-11 25.5t10 26
t26 11t26 -10.5t11.5 -25.5q0 -15 -11 -26t-26 -11z" />
    <glyph glyph-name="uniE612" unicode="&#xe612;" 
d="M729 315q-1 0 -4.5 1t-4.5 1.5t-4 1.5t-4 2t-3 2t-2.5 2.5t-1.5 3.5t-0.5 4t1.5 5q11 27 11.5 52.5t-10.5 42.5q-39 55 -190 -7v-1q-23 -9 -22 5q0 3 1 5q22 71 -10 103q-36 36 -121 3t-169 -115q-63 -63 -97.5 -126.5t-34.5 -119.5q0 -69 55 -123.5t139 -81.5t177 -27
q87 0 163 23t126 60t78.5 80.5t28.5 84.5q0 46 -29.5 76t-72.5 43zM436 -0.5q-110 -10.5 -193 32t-90 114t66 129.5t182.5 68.5t192.5 -32t90 -114t-65.5 -129.5t-182.5 -68.5zM897.5 577q-44.5 46 -106 64t-124.5 6q-14 -3 -22 -14.5t-5 -24.5t15.5 -20.5t26.5 -4.5
q44 8 88 -4.5t75.5 -45.5t41 -76t-4.5 -82q-5 -13 1.5 -25t20.5 -16.5t27 2t17 19.5q20 55 7 115.5t-57.5 106.5zM808 495q-21 23 -51 32t-61 3q-12 -3 -18.5 -13t-4 -21.5t13 -18t22.5 -4.5q32 7 54.5 -17t11.5 -54q-3 -12 2.5 -22.5t17 -14t23 2t14.5 16.5q10 28 3.5 58
t-27.5 53zM485 308q-54 14 -107.5 -9t-76.5 -70q-24 -47 -3.5 -93t74.5 -63q57 -18 114.5 6t80.5 75q22 50 -2 95t-80 59zM430 149.5q-11 -16.5 -31.5 -23t-37.5 1.5q-18 7 -22.5 24t6.5 33.5t31 23t37 -1.5q18 -7 23 -24t-6 -33.5zM478 208.5q-4 -6.5 -11.5 -9t-14.5 0
t-8.5 9t1.5 12.5q10 15 26 9q7 -2 9 -8.5t-2 -13z" />
    <glyph glyph-name="uniE613" unicode="&#xe613;" 
d="M512 748q-91 0 -174 -35.5t-143 -95.5t-95.5 -143t-35.5 -174.5t35.5 -174.5t95.5 -143t143 -95.5t174 -35.5t174.5 35.5t143.5 95.5t95.5 143t35.5 174.5t-35.5 174.5t-95.5 143t-143.5 95.5t-174.5 35.5zM512.5 -93q-106.5 0 -197 52.5t-143 143t-52.5 197t52.5 197
t143 143t197 52.5t197 -52.5t143 -143t52.5 -197t-52.5 -197t-143 -143t-197 -52.5zM681 328h-141v140q0 11 -8 19.5t-19.5 8.5t-20 -8.5t-8.5 -19.5v-140h-140q-11 0 -19.5 -8.5t-8.5 -20t8.5 -20t19.5 -8.5h140v-140q0 -11 8.5 -19.5t20 -8.5t19.5 8.5t8 19.5v140h141
q11 0 19.5 8.5t8.5 20t-8.5 20t-19.5 8.5z" />
    <glyph glyph-name="uniE614" unicode="&#xe614;" 
d="M511 -206q-103 0 -197 40t-162 108t-108 162t-40 197t40 197t108 162t162 108t197 40t197 -40t162 -108t108 -162t40 -197t-40 -197t-108 -162t-162 -108t-197 -40zM589 548q0 28 -24.5 49t-54.5 21t-54 -21t-24 -49v-293q0 -29 21 -49.5t50 -20.5q30 0 58 21t28 49v293z
M512 147q-33 0 -56 -23.5t-23 -56.5t23 -56t56 -23t56.5 23t23.5 56t-23.5 56.5t-56.5 23.5z" />
    <glyph glyph-name="uniE615" unicode="&#xe615;" 
d="M848 -149h-672q-47 0 -80 33t-33 80v617q0 46 33 79t80 33h112v-2h-57v-84q0 -35 24.5 -59.5t59.5 -24.5t60 24.5t25 59.5v84h-56v2h336v-2h-57v-84q0 -35 24.5 -59.5t59.5 -24.5t60 24.5t25 59.5v84h-56v2h112q47 0 80 -33t33 -79v-617q0 -47 -33 -80t-80 -33zM868 469
h-709v-525h709v525zM336 398h39v-39v-39v-40h-39h-39h-39v40v39v39h39h39zM336 202h39v-39v-39v-39h-39h-39h-39v39v39v39h39h39zM532 398h39v-39v-39v-40h-39h-40h-39v40v39v39h39h40zM532 202h39v-39v-39v-39h-39h-40h-39v39v39v39h39h40zM727 398h39v-39v-39v-40h-39h-39
h-39v40v39v39h39h39zM727 202h39v-39v-39v-39h-39h-39h-39v39v39v39h39h39zM736 582h-56v109h56v-109zM344 582h-56v109h56v-109zM288 749h56v-56h-56v56zM680 749h56v-56h-56v56z" />
    <glyph glyph-name="uniE616" unicode="&#xe616;" 
d="M508.5 726q91.5 0 174.5 -35.5t143 -95.5t95.5 -143t35.5 -174.5t-35.5 -174.5t-95.5 -143t-143 -95t-174.5 -35t-174.5 35t-143 95t-95.5 143t-35.5 174.5t35.5 174.5t95.5 143t143 95.5t174.5 35.5zM538 123q1 43 6 61.5t15.5 33.5t45.5 45q51 46 69 77.5t18 69.5
q0 65 -50.5 111t-134.5 46q-80 0 -128.5 -43t-58.5 -123l73 -9q9 60 39.5 88.5t75.5 28.5q47 0 79 -31.5t32 -72.5q0 -23 -11 -42t-47.5 -51.5t-50.5 -49.5q-20 -23 -28 -46q-12 -30 -12 -72v-21h68zM546 -18v80h-80v-80h80z" />
    <glyph glyph-name="uniE617" unicode="&#xe617;" 
d="M296 433q0 89 63.5 152t152.5 63t152 -63t63 -152v-149h100v149q0 130 -92.5 222.5t-223 92.5t-222.5 -92.5t-92 -222.5v-149h99v149zM793 251h-563q-27 0 -46.5 -19.5t-19.5 -47.5v-265q0 -27 19.5 -46.5t46.5 -19.5h563q28 0 47.5 19.5t19.5 46.5v265q0 28 -19.5 47.5
t-47.5 19.5zM538 34l34 -98q2 -6 -1 -10.5t-10 -4.5h-99q-6 0 -9.5 4.5t-1.5 10.5l34 98q5 14 -9 22q-36 21 -36 61q0 30 21 51t50.5 21t50.5 -21t21 -51q0 -41 -36 -61q-14 -8 -9 -22z" />
    <glyph glyph-name="uniE618" unicode="&#xe618;" 
d="M406 -127q0 -28 -13 -50q-11 -19 -37 -34.5t-76 -15.5q-33 0 -54.5 11.5t-33.5 26.5t-17 29.5t-6 21.5q42 1 55.5 18.5t13.5 61.5v476q0 14 -0.5 27.5t-6 23.5t-18 16t-36.5 5q3 24 15 43q11 17 33 30.5t61 13.5q35 0 56 -11t33 -24q14 -16 21 -35q29 38 74 57.5t98 19.5
q57 0 105 -20.5t82.5 -60t54 -97t19.5 -130.5q0 -68 -18 -121t-52 -90t-82 -56.5t-108 -19.5q-107 0 -163 66v-130v-52zM646 290q0 203 -120 203q-56 0 -90.5 -47t-34.5 -138v-57q0 -90 33 -137t87 -47q125 0 125 223z" />
    <glyph glyph-name="uniE619" unicode="&#xe619;" 
d="M700 518h-246q-17 0 -29 -12t-12 -29t12 -29t29 -12h147l-340 -339q-12 -12 -12 -29t12 -29t29 -12t29 12l340 339v-147q0 -16 12 -28t29 -12t29 12t12 28v287h-41v0zM700 518zM495 692q83 0 158 -32q73 -31 129.5 -87.5t87.5 -129.5q32 -75 32 -158t-32 -159
q-31 -73 -87.5 -129.5t-129.5 -86.5q-75 -32 -158 -32t-159 32q-73 30 -129 86.5t-87 129.5q-32 76 -32 159t32 158q31 73 87 129.5t129 87.5q76 32 159 32zM495 733q-91 0 -174 -35.5t-143 -95.5t-95.5 -143t-35.5 -174t35.5 -174t95.5 -143t143 -95.5t174 -35.5t174 35.5
t143 95.5t95.5 143t35.5 174t-35.5 174t-95.5 143t-143 95.5t-174 35.5z" />
    <glyph glyph-name="uniE61A" unicode="&#xe61a;" 
d="M450 40v-93h93v93h-93zM689 360q21 36 21 80q0 75 -58 127.5t-155 52.5q-91 0 -147 -49t-67 -142l83 -10q11 69 46 101.5t87 32.5q53 0 90 -35.5t37 -83.5q0 -26 -12.5 -48t-54.5 -59.5t-59 -56.5q-22 -27 -32 -53q-13 -35 -13 -82v-25h78q1 49 7 70.5t18 38.5t52 52
q59 52 79 89z" />
    <glyph glyph-name="uniE61B" unicode="&#xe61b;" 
d="M512 236h64v-64h-64v64zM576 300h64v-64h-64v64zM640 364h64v-64h-64v64zM704 428h64v-64h-64v64zM320 428h64v-64h-64v64zM384 364h64v-64h-64v64zM448 300h64v-64h-64v64z" />
    <glyph glyph-name="uniE61C" unicode="&#xe61c;" 
d="M512.5 -51q-71.5 0 -137.5 27q-63 27 -112 76t-76 112q-28 66 -28 138t28 137q27 64 76 113t112 75q66 28 137.5 28t137.5 -28q63 -26 112 -75t76 -113q28 -65 28 -137t-28 -138q-27 -63 -76 -112t-112 -76q-66 -27 -137.5 -27zM512.5 635q-90.5 0 -167 -44.5
t-121 -121.5t-44.5 -167t44.5 -167t121 -121.5t167 -44.5t167 44.5t121.5 121.5t45 167t-45 167t-121.5 121.5t-167 44.5zM482 153h55v-58h-55v58zM422 471q34 36 93 36q55 0 87.5 -31t32.5 -80q0 -29 -12 -47.5t-48 -53.5q-27 -26 -35 -44t-8 -52h-49q0 39 9.5 63.5
t41.5 55.5l22 22q10 9 16 19q11 18 11 38q0 27 -16 47t-54 20q-46 0 -64 -34q-10 -19 -11 -56h-49q0 60 33 97v0zM482 153h55v-58h-55v58zM422 471q34 36 93 36q55 0 87.5 -31t32.5 -80q0 -29 -12 -47.5t-48 -53.5q-27 -26 -35 -44t-8 -52h-49q0 39 9.5 63.5t41.5 55.5
l22 22q10 9 16 19q11 18 11 38q0 27 -16 47t-54 20q-46 0 -64 -34q-10 -19 -11 -56h-49q0 60 33 97v0z" />
    <glyph glyph-name="uniE61D" unicode="&#xe61d;" 
d="M495.5 651q74.5 0 142.5 -29q65 -28 115.5 -78.5t78.5 -115.5q29 -68 29 -142.5t-29 -142.5q-28 -65 -78.5 -116t-115.5 -78q-68 -29 -142.5 -29t-142.5 29q-65 27 -116 78t-78 116q-29 68 -29 142.5t29 142.5q27 65 78 115.5t116 78.5q68 29 142.5 29zM495 733
q-91 0 -173.5 -35.5t-142.5 -95.5t-95.5 -143t-35.5 -174t35.5 -173.5t95.5 -142.5t142.5 -95.5t173.5 -35.5t174 35.5t143 95.5t95.5 142.5t35.5 173.5t-35.5 174t-95.5 143t-143 95.5t-174 35.5zM725 470h-164v-65q0 -14 -9.5 -23.5t-23.5 -9.5h17q20 0 34.5 14.5
t14.5 34.5q0 9 -1 16h132v-361h-459v361h131v-16q0 -20 14.5 -34.5t34.5 -14.5h16q-13 0 -22.5 9.5t-9.5 23.5v65h-164q-14 0 -23.5 -9.5t-9.5 -23.5v-361q0 -13 9.5 -22.5t23.5 -9.5h459q14 0 23.5 9.5t9.5 22.5v361q0 14 -9.5 23.5t-23.5 9.5zM678 240h-199q-7 0 -12 -4.5
t-5 -11.5t5 -11.5t12 -4.5h199q7 0 12 4.5t5 11.5t-5 11.5t-12 4.5zM678 175h-199q-7 0 -12 -5t-5 -11.5t5 -11.5t12 -5h199q7 0 12 5t5 11.5t-5 11.5t-12 5zM479 273h199q7 0 12 5t5 11.5t-5 11.5t-12 5h-199q-7 0 -12 -5t-5 -11.5t5 -11.5t12 -5zM324 299q0 17 12 28.5
t28 11.5t28 -11.5t12 -28t-12 -28t-28 -11.5t-28 11.5t-12 27.5zM365 244q-27 0 -46 -25.5t-19 -61.5q0 -23 32.5 -32.5t65 0t32.5 32.5q0 36 -19 61.5t-46 25.5zM430 405q0 -14 9.5 -23.5t22.5 -9.5h66q14 0 23.5 9.5t9.5 23.5v65v66q0 13 -9.5 23t-23.5 10h-66
q-13 0 -22.5 -10t-9.5 -23v-66v-65zM528 405h-66v131h66v-131zM528 405z" />
    <glyph glyph-name="uniE61E" unicode="&#xe61e;" 
d="M495.5 651q74.5 0 142.5 -29q65 -28 115.5 -78.5t78.5 -115.5q29 -68 29 -142.5t-29 -142.5q-28 -65 -78.5 -116t-115.5 -78q-68 -29 -142.5 -29t-142.5 29q-65 27 -116 78t-78 116q-29 68 -29 142.5t29 142.5q27 65 78 115.5t116 78.5q68 29 142.5 29zM495 733
q-91 0 -173.5 -35.5t-142.5 -95.5t-95.5 -143t-35.5 -174t35.5 -173.5t95.5 -142.5t142.5 -95.5t173.5 -35.5t174 35.5t143 95.5t95.5 142.5t35.5 173.5t-35.5 174t-95.5 143t-143 95.5t-174 35.5zM480 -16q-16 47 -32 88l-126 313q-26 68 -31 74t-30 6h-14v22q54 -2 93 -2
q40 0 96 2v-22h-34q-18 0 -23 -3.5t-5 -10.5q0 -4 1 -10l46 -121l95 -242l92 231q47 116 47 135q0 16 -20 17l-14 1l-30 3v22q46 -2 76 -2q32 0 79 2v-22h-14q-17 0 -24.5 -8t-26.5 -55l-118 -288q-33 -81 -47 -130h-36z" />
    <glyph glyph-name="uniE61F" unicode="&#xe61f;" 
d="M495.5 651q74.5 0 142.5 -29q65 -28 115.5 -78.5t78.5 -115.5q29 -68 29 -142.5t-29 -142.5q-28 -65 -78.5 -116t-115.5 -78q-68 -29 -142.5 -29t-142.5 29q-65 27 -116 78t-78 116q-29 68 -29 142.5t29 142.5q27 65 78 115.5t116 78.5q68 29 142.5 29zM495 733
q-91 0 -173.5 -35.5t-142.5 -95.5t-95.5 -143t-35.5 -174t35.5 -173.5t95.5 -142.5t142.5 -95.5t173.5 -35.5t174 35.5t143 95.5t95.5 142.5t35.5 173.5t-35.5 174t-95.5 143t-143 95.5t-174 35.5zM463 227q11 -11 21.5 -15t18.5 -2t14 6t9 8l3 3l196 182q0 16 -7.5 25.5
t-15.5 10.5l-8 1h-399q-13 0 -20.5 -9t-8.5 -18v-9zM631 300l62 -146l-83 127l-65 -63q-11 -15 -24 -22.5t-20 -6.5h-7q-13 0 -25.5 7.5t-17.5 15.5l-6 8l-64 61l-83 -126l65 143l-98 93v-238q0 -16 7.5 -25t15.5 -10l8 -1h397q13 0 21 9t10 17l2 9v239zM631 300z" />
    <glyph glyph-name="uniE620" unicode="&#xe620;" 
d="M495.5 651q74.5 0 142.5 -29q65 -28 115.5 -78.5t78.5 -115.5q29 -68 29 -142.5t-29 -142.5q-28 -65 -78.5 -116t-115.5 -78q-68 -29 -142.5 -29t-142.5 29q-65 27 -116 78t-78 116q-29 68 -29 142.5t29 142.5q27 65 78 115.5t116 78.5q68 29 142.5 29zM495 733
q-91 0 -173.5 -35.5t-142.5 -95.5t-95.5 -143t-35.5 -174t35.5 -173.5t95.5 -142.5t142.5 -95.5t173.5 -35.5t174 35.5t143 95.5t95.5 142.5t35.5 173.5t-35.5 174t-95.5 143t-143 95.5t-174 35.5zM391 164h50q3 0 3 4v26q0 4 -3 4h-50q-3 0 -3 -4v-26q0 -4 3 -4zM412 250
h169q8 0 14 6t6 14v140q0 8 -6 14t-14 6h-169q-9 0 -14.5 -6t-5.5 -14v-140q0 -8 5.5 -14t14.5 -6zM521 85h-49q-3 0 -3 -4v-27q0 -4 3 -4h49q3 0 3 4v27q0 4 -3 4zM391 50h50q3 0 3 4v27q0 4 -3 4h-50q-3 0 -3 -4v-27q0 -4 3 -4zM521 142h-49q-3 0 -3 -4v-27q0 -4 3 -4h49
q3 0 3 4v27q0 4 -3 4zM391 107h50q3 0 3 4v27q0 4 -3 4h-50q-3 0 -3 -4v-27q0 -4 3 -4zM521 198h-49q-3 0 -3 -4v-26q0 -4 3 -4h49q3 0 3 4v26q0 4 -3 4zM549 194v-26q0 -4 3 -4h49q3 0 3 4v26q0 4 -3 4h-49q-3 0 -3 -4zM601 142h-49q-3 0 -3 -4v-27q0 -4 3 -4h49q3 0 3 4
v27q0 4 -3 4zM601 85h-49q-3 0 -3 -4v-27q0 -4 3 -4h49q3 0 3 4v27q0 4 -3 4zM441 -38h4q24 -3 51 -3q32 0 60 4q67 8 88 27q19 17 19 42v420q0 29 -24 46q-5 3 -18 9v70q0 16 -11.5 27.5t-27.5 11.5t-27.5 -11.5t-11.5 -27.5v-54q-25 2 -47 2q-39 0 -71 -5q-55 -8 -75 -25
t-20 -43v-420q0 -25 18 -42q23 -21 93 -28zM359 452q0 12 9 20q15 12 61 20q30 4 67 4q32 0 60 -3l16 -3v17v70q0 4 3 7t7 3t7 -3t3 -7v-20v-39v-20v-10l9 -4q15 -6 21 -10q12 -8 12 -22v-420q0 -12 -9 -20q-15 -14 -72 -21q-27 -3 -57 -3q-25 0 -48 3h-4q-60 6 -77 21
q-8 8 -8 20v420zM359 452z" />
    <glyph glyph-name="uniE621" unicode="&#xe621;" horiz-adv-x="1025" 
d="M851 -78h-676q-47 0 -80 33t-33 79v508q0 46 33 79t80 33h676q47 0 80 -33t33 -79v-508q0 -46 -33 -79t-80 -33zM175 -22h676q24 0 40.5 16.5t16.5 39.5v395h-789v-395q0 -23 16.5 -39.5t39.5 -16.5zM851 598h-676q-23 0 -39.5 -16.5t-16.5 -39.5v-57h789v57
q0 23 -16.5 39.5t-40.5 16.5zM203 260h282q12 0 20 -8.5t8 -20t-8 -20t-20 -8.5h-282q-11 0 -19.5 8.5t-8.5 20t8.5 20t19.5 8.5zM203 147h226q11 0 19.5 -8t8.5 -20t-8.5 -20t-19.5 -8h-226q-11 0 -19.5 8t-8.5 20t8.5 20t19.5 8zM598 260h56q12 0 20 -8.5t8 -20t-8 -20
t-20 -8.5h-56q-12 0 -20 8.5t-8 20t8 20t20 8.5z" />
    <glyph glyph-name="uniE622" unicode="&#xe622;" 
d="M467 366q0 -23 -16 -38.5t-39 -15.5h-310q-23 0 -38.5 15.5t-15.5 38.5v310q0 23 15.5 39t38.5 16h310q23 0 39 -16t16 -39v-310zM467 -111q0 -22 -16 -38t-39 -16h-310q-23 0 -38.5 16t-15.5 38v311q0 22 15.5 38t38.5 16h310q23 0 39 -16t16 -38v-311zM943 366
q0 -23 -16 -38.5t-38 -15.5h-310q-23 0 -39 15.5t-16 38.5v310q0 23 16 39t39 16h310q22 0 38 -16t16 -39v-310zM943 -111q0 -22 -16 -38t-38 -16h-310q-23 0 -39 16t-16 38v311q0 22 16 38t39 16h310q22 0 38 -16t16 -38v-311z" />
    <glyph glyph-name="uniE623" unicode="&#xe623;" 
d="M918 -50h-811q-18 0 -30 12t-12 30v671q0 17 12 29.5t29.5 12.5t30 -12.5t12.5 -29.5v-532v-97h769q17 0 29.5 -12.5t12.5 -30t-12.5 -29.5t-29.5 -12zM820 75h-84q-17 0 -29.5 12.5t-12.5 29.5v294q0 18 12.5 30t29.5 12h84q17 0 29.5 -12t12.5 -30v-294
q0 -17 -12.5 -29.5t-29.5 -12.5zM582 75h-84q-17 0 -29.5 12.5t-12.5 29.5v462q0 18 12.5 30t29.5 12h84q18 0 30 -12t12 -30v-462q0 -17 -12 -29.5t-30 -12.5zM344 75h-84q-17 0 -29.5 12.5t-12.5 29.5v84q0 18 12.5 30t29.5 12h84q18 0 30 -12t12 -30v-84q0 -17 -12 -29.5
t-30 -12.5z" />
    <glyph glyph-name="uniE624" unicode="&#xe624;" 
d="M955 374h-44q-15 0 -29.5 10.5t-18.5 24.5l-26 62q-7 13 -4.5 30.5t13.5 28.5l32 31q10 11 10 26.5t-10 25.5l-53 52q-11 11 -26 11t-26 -11l-31 -31q-11 -11 -28.5 -13.5t-30.5 4.5l-62 26q-14 4 -24.5 18.5t-10.5 29.5v44q0 15 -11 26t-26 11h-74q-15 0 -26 -11
t-11 -26v-44q0 -16 -10.5 -30t-24.5 -18l-62 -26q-13 -7 -30.5 -4.5t-28.5 13.5l-31 32q-11 10 -26 10t-26 -10l-52 -53q-11 -10 -11 -25.5t11 -26.5l31 -31q11 -11 13.5 -28.5t-4.5 -30.5l-26 -62q-4 -14 -18.5 -24.5t-29.5 -10.5h-44q-15 0 -26 -11t-11 -26v-74
q0 -15 11 -26t26 -11h44q16 0 30 -10.5t18 -24.5l26 -62q7 -13 4.5 -30.5t-13.5 -28.5l-32 -31q-10 -11 -10 -26.5t10 -25.5l53 -53q11 -10 26 -10t26 10l31 32q11 11 28.5 13.5t30.5 -5.5l62 -25q14 -4 24.5 -18.5t10.5 -29.5v-44q0 -15 11 -26t26 -11h74q15 0 26 11t11 26
v44q0 15 10.5 29.5t24.5 18.5l62 25q13 8 30.5 5.5t28.5 -13.5l31 -32q11 -10 26 -10t26 10l53 53q10 11 10 26t-10 26l-32 31q-11 11 -13.5 28.5t4.5 30.5l26 62q4 14 18 24.5t30 10.5h44q15 0 26 11t11 26v74q0 15 -11 26t-26 11zM697 300q0 -76 -54 -130.5t-130.5 -54.5
t-131 54.5t-54.5 131t54.5 130.5t131 54t130.5 -54t54 -131z" />
    <glyph glyph-name="uniE625" unicode="&#xe625;" 
d="M286 28l-45 45q-10 9 -10 22.5t10 22.5l181 181l-181 182q-10 9 -10 22.5t10 22.5l45 45q9 10 22.5 10t22.5 -10l182 -181l181 181q9 10 22.5 10t22.5 -10l45 -45q10 -9 10 -22.5t-10 -22.5l-181 -182l181 -181q10 -9 10 -22.5t-10 -22.5l-45 -45q-9 -10 -22.5 -10
t-22.5 10l-181 181l-182 -181q-9 -10 -22.5 -10t-22.5 10z" />
    <glyph glyph-name="uniE626" unicode="&#xe626;" horiz-adv-x="1000" 
d="M719 800h-438q-38 0 -65.5 -27.5t-27.5 -66.5v-812q0 -39 27.5 -66.5t65.5 -27.5h438q38 0 65.5 27.5t27.5 66.5v812q0 39 -27.5 66.5t-65.5 27.5zM375 753h250v-31h-250v31zM500 -138q-26 0 -44 18.5t-18 44.5t18 44.5t44 18.5t44 -18.5t18 -44.5t-18 -44.5t-44 -18.5z
M750 50h-500v625h500v-625z" />
    <glyph glyph-name="uniE627" unicode="&#xe627;" 
d="M886 608h-747q-31 0 -53 -22t-22 -53v-458q0 -31 22 -53t53 -22h747q31 0 53 22t22 53v458q0 31 -22 53t-53 22zM868 554l-298 -264q-39 -35 -57.5 -35t-57.5 35l-298 264h711zM120 92v413l232 -204zM159 54l233 207l39 -34q33 -29 81 -29t82 29l38 34l234 -207h-707z
M905 92l-233 209l233 204v-413z" />
    <glyph glyph-name="uniE628" unicode="&#xe628;" 
d="M1025 428h-384l143 143q-54 55 -124 84t-147 29t-147.5 -29t-125 -83.5t-83.5 -125t-29 -147.5t29 -147t83.5 -124.5t125 -83.5t147.5 -29t147 29t124 84q9 8 18 18l96 -84q-71 -82 -171.5 -128.5t-213.5 -46.5q-105 0 -200 40.5t-163.5 109t-109 163.5t-40.5 199.5
t40.5 199.5t109 163.5t163.5 109t199.5 40.5t198 -39.5t164.5 -110.5l150 150v-384z" />
    <glyph glyph-name="uniE629" unicode="&#xe629;" 
d="M131 48q6 0 14.5 -1t31 -8t40 -19t31.5 -38t13 -61q0 -5 -1 -13.5t-9 -30t-20.5 -38t-38.5 -30t-61 -13.5q-5 0 -13 1.5t-29.5 9t-37.5 19.5t-29.5 37.5t-13.5 58.5l6 33q26 84 117 93zM8 439q8 0 22 -0.5t57.5 -7t86 -17.5t100 -34t107.5 -54t101 -81t87 -111.5
t59.5 -148.5t25.5 -189h-176q-2 10 -5 26.5t-18.5 65t-36 92.5t-58.5 98t-84 93t-116.5 67t-151.5 29v172zM8 804h32q21 0 84.5 -8t126 -23t148.5 -49t161.5 -81t155 -125.5t139 -176t103.5 -238.5t58 -307h-169q-1 10 -2.5 27.5t-11 71t-24.5 105.5t-46.5 124.5
t-72.5 135.5t-106 129t-144 115t-190.5 85t-241.5 46v169z" />
    <glyph glyph-name="uniE62A" unicode="&#xe62a;" 
d="M528 765q-91 0 -174 -35.5t-143 -96t-95.5 -143.5t-35.5 -174t35.5 -174t95.5 -143t143 -95.5t174 -35.5t174 35.5t143 95.5t95.5 143t35.5 174t-35.5 174t-95.5 143.5t-143 96t-174 35.5zM750 292q0 -7 -4.5 -11.5t-10.5 -4.5h-417q-6 0 -10.5 4.5t-4.5 11.5v52
q0 6 4.5 10.5t10.5 4.5h417q6 0 10.5 -4.5t4.5 -10.5v-52z" />
    <glyph glyph-name="uniE62B" unicode="&#xe62b;" 
d="M528.5 765q-91.5 0 -174.5 -35.5t-143 -96t-95.5 -143.5t-35.5 -174.5t35.5 -174.5t95.5 -143t143 -95.5t174.5 -35.5t174.5 35.5t143 95.5t95.5 143t35.5 174.5t-35.5 174.5t-95.5 143.5t-143 96t-174.5 35.5zM528 -49q-99 0 -183 49t-132.5 133t-48.5 183t48.5 183
t132.5 132.5t183 48.5t183 -48.5t133 -132.5t49 -183t-49 -183t-133 -133t-183 -49zM570 525q0 6 -4.5 10.5t-10.5 4.5h-54q-6 0 -10.5 -4.5t-4.5 -10.5v-167h-167q-6 0 -10.5 -4.5t-4.5 -10.5v-54q0 -6 4.5 -10.5t10.5 -4.5h167v-167q0 -6 4.5 -10.5t10.5 -4.5h54
q6 0 10.5 4.5t4.5 10.5v167h167q6 0 10.5 4.5t4.5 10.5v54q0 6 -4.5 10.5t-10.5 4.5h-167v167z" />
    <glyph glyph-name="uniE62C" unicode="&#xe62c;" 
d="M799 -88h-639q-40 0 -68 28t-28 68v578q0 40 28 68t68 28h642q40 0 68 -28t28 -68v-94q0 -13 -9 -22.5t-22.5 -9.5t-23 9.5t-9.5 22.5v94q0 13 -9 22.5t-23 9.5h-642q-13 0 -22.5 -9.5t-9.5 -22.5v-578q0 -14 9.5 -23t22.5 -9h639q14 0 23 9t9 23v98q0 14 9.5 23t23 9
t22.5 -9t9 -23v-98q0 -40 -28 -68t-68 -28zM661 298zM630 298q0 13 9.5 22t22 9t22 -9t9.5 -22t-9.5 -22t-22 -9t-22 9t-9.5 22zM896 172h-320q-26 0 -45 19t-19 45v128q0 26 19 45t45 19h320q26 0 45 -19t19 -45v-128q0 -26 -19 -45t-45 -19zM576 364v-128h320v128h-320z
" />
    <glyph glyph-name="uniE62D" unicode="&#xe62d;" 
d="M512 684q-159 0 -271.5 -112.5t-112.5 -271.5t112.5 -271.5t271.5 -112.5t271.5 112.5t112.5 271.5t-112.5 271.5t-271.5 112.5zM512 -20q-132 0 -226 94t-94 226t94 226t226 94t226 -94t94 -226t-94 -226t-226 -94zM672 300h-160v224q0 13 -9.5 22.5t-22.5 9.5
t-22.5 -9.5t-9.5 -22.5v-256q0 -13 9.5 -22.5t22.5 -9.5h192q13 0 22.5 9.5t9.5 22.5t-9.5 22.5t-22.5 9.5z" />
    <glyph glyph-name="uniE62E" unicode="&#xe62e;" 
d="M512 -160q-185 0 -316.5 131.5t-131.5 316.5t131.5 316.5t316.5 131.5t316.5 -131.5t131.5 -316.5t-131.5 -316.5t-316.5 -131.5zM512 672q-104 0 -192.5 -51.5t-140 -140t-51.5 -192.5t51.5 -192.5t140 -140t192.5 -51.5t192.5 51.5t140 140t51.5 192.5t-51.5 192.5
t-140 140t-192.5 51.5zM727 406.5q-9 9.5 -22.5 9.5t-22.5 -9l-234 -236l-103 106q-9 9 -22.5 9.5t-23 -9t-9.5 -22.5t9 -23l126 -129h1v-1q1 -1 7 -4q0 -1 1 -1.5t2 -1.5q6 -2 12 -2t12 2q1 1 2 1.5t2 1.5q5 3 7 4v1l256 259q10 9 9.5 22t-9.5 22.5z" />
    <glyph glyph-name="uniE62F" unicode="&#xe62f;" 
d="M523 712q-113 0 -209 -56t-152 -152t-56 -209t56 -209t152 -151.5t209 -55.5t209 55.5t152 151.5t56 209t-56 209t-152 152t-209 56zM523 -77q-101 0 -187 50t-135.5 136t-49.5 186.5t49.5 186.5t135.5 135.5t187 49.5t186.5 -49.5t135.5 -135.5t50 -186.5t-50 -186.5
t-135.5 -136t-186.5 -50zM624 513l-67 -122q-26 -49 -32 -65h-1q-18 39 -99 187h-62l116 -198h-95v-44h111v-61h-111v-44h111v-89h55v89h108v44h-108v61h108v44h-92l116 198h-58z" />
    <glyph glyph-name="uniE630" unicode="&#xe630;" 
d="M432 490q-19 47 -58 88q-39 42 -92 71q39 33 60.5 38.5t46.5 -8.5q44 -25 74 -69q31 -45 18 -67q-4 -8 -17 -22q-10 -11 -32 -31zM698 -73q15 5 24 10q9 6 12 12q6 10 0 40q-6 31 -21 65q-14 29 -36 57q-21 28 -29 32q-5 3 -30 -2q-24 -5 -42 5q-22 12 -52 46
q-32 35 -69 87q-42 62 -55 93q-14 31 -10 53q1 5 5 16q15 35 -1 65q-17 29 -50 61q-33 33 -60 48q-22 12 -33.5 9.5t-24.5 -24.5q-19 -34 -27 -62q-9 -28 -6 -45q2 -22 26 -80q25 -58 60 -124q66 -122 158 -227q91 -105 149 -137q11 -6 26 -8q17 -2 43 0zM764 -35
q-7 58 -31 108q-24 49 -65 87q37 19 54 22q17 4 30 -3q34 -19 61 -79t10 -91q-5 -9 -20 -20t-39 -24z" />
    <glyph glyph-name="uniE631" unicode="&#xe631;" 
d="M511 385l441 -438h1l69 69l-511 508l-512 -508l70 -69z" />
    <glyph glyph-name="uniE632" unicode="&#xe632;" 
d="M152 688h305q9 0 14.5 -6t7.5 -18.5t2.5 -20.5t0 -25.5t-0.5 -22.5v-169q0 -6 0.5 -21.5t0 -24t-1.5 -19.5t-5.5 -17.5t-11.5 -9.5t-21 -3.5t-33.5 0.5t-23.5 1h-162q-6 0 -23 -0.5t-25.5 -0.5t-20.5 2t-18 7.5t-7 15.5v309q6 18 23 23zM194 619v-220h220v223h-219
q-1 0 -1 -3zM562 688h305q20 -7 23 -27v-301q-5 -22 -21 -27q-9 -2 -22 -2.5t-30.5 0.5t-24.5 1h-157q-7 0 -24.5 -1t-31 -1t-21.5 3t-12.5 9.5t-6.5 19t-2 21.5t0.5 25.5t0.5 22.5v158q0 8 -0.5 25.5t-0.5 27t2 21.5t7.5 18t15.5 7zM604 619v-220h220v223h-219q-2 0 -1 -3z
M294 554q23 5 39 -8t17 -35q0 -27 -22 -40t-45 -2q-16 9 -21.5 28t3.5 36.5t29 20.5zM704 554q39 8 51 -26q10 -30 -10 -51q-16 -16 -41 -12q-22 4 -30.5 24t0 40.5t30.5 24.5zM455 -84h-302q-19 6 -24 25v308q6 19 20 23q9 2 22 2.5t30.5 -0.5t24.5 -1h156q7 0 24.5 1
t31 0.5t22.5 -2.5q8 -3 13 -9.5t6.5 -18.5t2 -21t0 -25.5t-0.5 -23.5v-162q0 -6 0.5 -24.5t0 -26.5t-2.5 -20t-8 -18t-16 -7zM194 203v-220h220v223h-219q-1 0 -1 -3zM890 245v-86q-1 -7 -0.5 -46t-0.5 -47h-218v50q-5 2 -33 1.5t-34 -0.5q-2 -17 -1.5 -99.5t0.5 -101.5h-40
q-10 2 -16 8.5t-8 18.5t-2 21.5t0.5 27t0.5 24.5v158q0 7 -1 25.5t-0.5 32t2.5 21.5q2 5 4.5 8.5t7 5.5t8 3.5t11 2t11.5 0.5h13h13h148v-136h69q0 12 -0.5 68.5t1.5 67.5q17 0 31 -0.5t23.5 -7t10.5 -20.5zM300 140q25 2 40.5 -17.5t6.5 -45.5q-9 -23 -33.5 -27t-42.5 12.5
t-10.5 45t39.5 32.5zM745 -84h-74v41q0 33 1 39h73v-80zM890 -4v-52q-4 -21 -24 -28h-52q0 8 -0.5 41t1.5 39h75z" />
    <glyph glyph-name="uniE633" unicode="&#xe633;" horiz-adv-x="1000" 
d="M904 -37h1v1q0 -1 -1 -1zM571 227h-3l-1 31v70q5 3 12.5 9.5t21.5 25.5t16 39q4 0 8 1q14 1 27.5 23t20.5 42l7 21v5q0 3 -1 9t-2.5 11.5t-5.5 9.5t-9 4q-23 0 -26 -1l5 68l1 15q0 3 -0.5 8t-3.5 20t-9 28.5t-18 30t-29 28.5t-44.5 20.5t-61.5 8.5q-134 -1 -142 -59
q-1 -11 2 -19v-1q-32 -19 -32 -73q0 -73 9 -82l-23 8q-1 0 -3 -0.5t-6.5 -3t-8 -6t-6 -11t-1.5 -16.5q2 -28 20.5 -57t41.5 -31q2 -1 6 -1q0 -24 11.5 -43t22.5 -25l11 -7v-67l-60 -33l-177 -58q-3 -1 -7 -3t-15 -10t-19.5 -18.5t-15.5 -29.5t-7 -43l1 -102h492
q-45 58 -45 131q-1 75 46 133zM736 264q-70 0 -120 -49.5t-50 -119.5t50 -120t120 -50t119.5 50t49.5 120t-49.5 119.5t-119.5 49.5zM845 126q-51 -50 -105 -106q0 -3 -7 -10q-11 -10 -17 -13q-10 -8 -19 -1q-6 3 -13 9q-11 12 -31.5 32t-32.5 32q-9 10 -10.5 18t1.5 12
t10 11q9 9 17.5 10t12 -2t11.5 -11l41 -41q13 13 44 45.5t58 59.5q10 10 18.5 11.5t11.5 -0.5t9 -7q25 -26 1 -49z" />
    <glyph glyph-name="uniE634" unicode="&#xe634;" 
d="M951 -49h-878q-30 0 -51.5 21.5t-21.5 51.5v511q0 30 21.5 51.5t51.5 21.5l73 -1v77l144 1v-77h443l-1 77l147 -1v-76h72q30 0 51.5 -21.5t21.5 -51.5v-511q0 -30 -21.5 -51.5t-51.5 -21.5zM255 648h-73v-113h73v113zM292 432q-33 0 -56.5 -30.5t-23.5 -74t23.5 -74.5
t56.5 -31t56.5 31t23.5 74.5t-23.5 74t-56.5 30.5zM419 181q-8 6 -27.5 11.5t-33.5 8.5l-15 2q-37 -39 -52 -39q-7 0 -20 9.5t-23 19.5l-10 10q-56 -9 -76 -22q-9 -5 -16 -26.5t-9.5 -37.5t-2.5 -18h314v2q0 2 -0.5 6t-1.5 9.5t-2.5 11.5t-3 12.5t-3.5 12.5t-4.5 11.5t-6 10
t-7.5 6.5zM841 648h-73v-113h73v113zM878 389h-329v-37h329v37zM878 316h-329v-37h329v37zM878 243h-329v-37h329v37zM878 170h-329v-37h329v37z" />
    <glyph glyph-name="uniE635" unicode="&#xe635;" 
d="M529 44q-13 0 -28 8t-23 16l-9 7v88q-35 5 -52 6q28 15 54 47.5t41 77.5v88q0 55 -37 93t-91 38t-91 -38t-37 -93v-88q37 -101 97 -125q-34 -3 -68.5 -12t-55 -17.5t-56.5 -25.5t-52 -24q-28 -12 -46 -30.5t-24 -34.5t-7 -33t0.5 -23.5t2.5 -9.5h657v85h-175zM512 193
v-106h256v-114l234 183l-234 197v-160h-256z" />
    <glyph glyph-name="uniE636" unicode="&#xe636;" 
d="M832 -224h-576q-53 0 -90.5 37.5t-37.5 90.5v640l384 -128h64l384 128v-640q0 -53 -37.5 -90.5t-90.5 -37.5zM577 98h93q31 0 32 27q1 11 -8.5 23.5t-23.5 12.5h-93v23q70 72 89 88q27 25 11 44q-9 10 -22 10t-24 -10l-87 -79q-62 64 -75 77q-11 10 -25 13.5t-26 -6.5
q-9 -14 -6 -25.5t11 -19.5l87 -91l-1 -25h-96q-10 0 -18.5 -13.5t-8.5 -25.5q0 -10 7.5 -17t19.5 -7l96 1v-69h-100q-11 0 -19 -8.5t-8 -19.5q-1 -11 7 -21.5t20 -10.5h100v-33q2 -30 35 -31q14 0 23.5 9.5t9.5 20.5l-1 34q84 1 99 0q12 0 20 10t7 22q-1 29 -34 29h-91v68z
M576 480h-64l-384 128q0 53 37.5 90.5t90.5 37.5h576q53 0 90.5 -37.5t37.5 -90.5z" />
    <glyph glyph-name="uniE637" unicode="&#xe637;" 
d="M557 299l266 264q9 9 9 22t-9.5 22.5t-22.5 9.5t-23 -9l-265 -264l-263 264q-9 9 -22.5 9t-23 -9t-9.5 -22.5t10 -22.5l263 -264l-265 -264q-10 -9 -10 -22.5t9.5 -22.5t22.5 -9t23 9l265 264l265 -267q10 -9 23 -9t22.5 9.5t9.5 22.5t-9 23z" />
    <glyph glyph-name="uniE638" unicode="&#xe638;" 
d="M235 314l-52 -53l209 -209l445 445l-53 52l-392 -392z" />
    <glyph glyph-name="uniE639" unicode="&#xe639;" 
d="M513 169q-43 0 -83 10q-20 6 -20 26q0 11 8 18.5t19 7.5q6 0 12 -2q31 -7 64 -7q113 0 193.5 77t80.5 186t-80.5 186t-194 77t-193.5 -77t-80 -186q0 -70 36 -131q4 -7 4 -14q0 -11 -8 -18.5t-20 -7.5q-18 0 -25 16q-42 72 -42 155q0 86 44 159t119.5 115t165 42
t165.5 -42t120 -115t44 -159t-44 -159t-120 -115t-165 -42zM510 584q-46 0 -78 -31t-32 -75q0 -25 11 -47q-7 -6 -14.5 -14t-22 -24t-28.5 -35.5t-31 -46t-31 -57.5t-28.5 -67t-24 -78.5t-15.5 -88t-5.5 -99.5t8.5 -110q0 -1 1 -3.5t8 -6.5t19 -3q8 0 15 5t7 13q-2 33 -3 57
t0 70t6.5 83.5t18 88.5t32 94.5t52 91.5t73.5 89q28 -19 62 -19q46 0 78.5 31.5t32.5 75.5t-32.5 75t-78.5 31z" />
    <glyph glyph-name="uniE63A" unicode="&#xe63a;" 
d="M415 -15q-110 23 -183 111t-73 203q0 87 43 160.5t116.5 116.5t160.5 43q128 0 220 -88t99 -215v-2v-1q-6 1 -17 1t-18 1q-6 113 -88 191.5t-196 78.5q-119 0 -202.5 -84t-83.5 -202q0 -104 65.5 -182.5t164.5 -98.5v-2zM317 285q0 8 5.5 14t13.5 6h138v173
q0 10 5.5 16.5t14 6.5t14 -6.5t5.5 -16.5v-190v-2v-1q0 -8 -5.5 -14t-13.5 -6h-158q-8 0 -13.5 6t-5.5 14zM553 223.5q6 5.5 14.5 5t15.5 -7.5l67 -67l65 65q6 6 14.5 7t14 -5t5 -14.5t-6.5 -14.5l-45 -45h29q10 0 16.5 -5.5t6.5 -14t-6.5 -14t-16.5 -5.5h-56v-40h56
q10 0 16.5 -5.5t6.5 -13.5t-6.5 -14t-16.5 -6h-56v-56q0 -9 -5.5 -15.5t-13.5 -6.5t-14 6.5t-6 15.5v56h-56q-9 0 -16 6t-7 14t7 13.5t16 5.5h56v40h-56q-9 0 -16 5.5t-7 14t7 14t16 5.5h26l-46 46q-6 7 -7 16t5 14.5zM419 2zM402 1.5q0 6.5 5 11.5t12 5t11.5 -5t4.5 -11.5
t-4.5 -11.5t-11.5 -5t-12 5t-5 11.5zM781 312zM763 312.5q0 7.5 5 12.5t12.5 5t12.5 -5t5 -12.5t-5 -12.5t-12.5 -5t-12.5 5t-5 12.5z" />
    <glyph glyph-name="uniE63B" unicode="&#xe63b;" horiz-adv-x="1000" 
d="M752 640l-173 -295h137v-65h-160v-90h160v-67h-160v-130h-82v130h-165v67h165v90h-165v65h141l-172 295h92q121 -220 147 -279h2q8 24 48 98l98 181h87z" />
    <glyph glyph-name="uniE63C" unicode="&#xe63c;" 
d="M512 748q-91 0 -174 -35.5t-143 -95.5t-95.5 -143t-35.5 -174t35.5 -174t95.5 -143t143 -95.5t174 -35.5t174 35.5t143 95.5t95.5 143t35.5 174t-35.5 174t-95.5 143t-143 95.5t-174 35.5zM512 -100q-109 0 -201 53.5t-145.5 145.5t-53.5 201t53.5 201t145.5 145.5
t201 53.5t201 -53.5t145.5 -145.5t53.5 -201t-53.5 -201t-145.5 -145.5t-201 -53.5zM442 518q0 25 21.5 43.5t47.5 18.5t48 -18.5t22 -43.5v-259q0 -24 -24.5 -43t-51.5 -19q-26 0 -44.5 18.5t-18.5 43.5v259zM513 23q-29 0 -49.5 20.5t-20.5 49.5t20.5 50t49.5 21t49.5 -21
t20.5 -50t-20.5 -49.5t-49.5 -20.5z" />
    <glyph glyph-name="uniE63D" unicode="&#xe63d;" 
d="M512 -148q-185 0 -316.5 131.5t-131.5 316.5t131.5 316.5t316.5 131.5t316.5 -131.5t131.5 -316.5t-131.5 -316.5t-316.5 -131.5zM512 684q-104 0 -192.5 -51.5t-140 -140t-51.5 -192.5t51.5 -192.5t140 -140t192.5 -51.5t192.5 51.5t140 140t51.5 192.5t-51.5 192.5
t-140 140t-192.5 51.5zM727 418.5q-9 9.5 -22.5 9.5t-22.5 -9l-234 -236l-103 106q-9 9 -22.5 9.5t-23 -9t-9.5 -22.5t9 -23l126 -129h1v-1q1 -1 7 -4q0 -1 1 -1.5t2 -1.5q6 -2 12 -2t12 2q1 1 2 1.5t2 1.5q5 3 7 4v1l256 259q10 9 9.5 22t-9.5 22.5z" />
    <glyph glyph-name="uniE63E" unicode="&#xe63e;" 
d="M512 800q-139 0 -257 -68.5t-186.5 -186.5t-68.5 -257t68.5 -257t186.5 -186.5t257 -68.5t257 68.5t186.5 186.5t68.5 257t-68.5 257t-186.5 186.5t-257 68.5zM512 -153q-90 0 -171.5 35t-140.5 94t-94 140.5t-35 171.5t35 171.5t94 140.5t140.5 94t171.5 35t171.5 -35
t140.5 -94t94 -140.5t35 -171.5t-35 -171.5t-94 -140.5t-140.5 -94t-171.5 -35zM720.5 487.5q-12.5 11.5 -29.5 10.5t-29 -13l-135 -133l-136 138q-13 12 -29.5 11t-28 -13.5t-11 -29.5t13.5 -28l133 -135l-139 -136q-11 -13 -10.5 -30t13 -28.5t29.5 -10.5t29 13l135 133
l136 -138q12 -12 29 -11t28.5 13.5t11 29.5t-13.5 28l-133 135l139 136q11 13 10.5 30t-13 28.5z" />
    <glyph glyph-name="uniE63F" unicode="&#xe63f;" 
d="M512 812q-104 0 -199 -40.5t-163.5 -109t-109 -163.5t-40.5 -199t40.5 -199t109 -163.5t163.5 -109t199 -40.5t199 40.5t163.5 109t109 163.5t40.5 199t-40.5 199t-109 163.5t-163.5 109t-199 40.5zM512 -132q-117 0 -217 57.5t-157.5 157.5t-57.5 217t57.5 217
t157.5 157.5t217 57.5t217 -57.5t157.5 -157.5t57.5 -217t-57.5 -217t-157.5 -157.5t-217 -57.5zM506 104q20 0 39 14.5t19 33.5v457q0 19 -16.5 33t-37 14t-36.5 -14t-16 -33v-457q0 -20 14 -34t34 -14zM512 -11zM458 -11q0 22 16 38t38 16t38 -16t16 -38t-16 -38t-38 -16
t-38 16t-16 38z" />
    <glyph glyph-name="uniE640" unicode="&#xe640;" 
d="M865 82q0 6 5.5 6t5.5 -6t-5.5 -6t-5.5 6zM736 -51q0 5 3.5 8.5t8 3.5t8 -3.5t3.5 -8.5t-3.5 -8t-8 -3t-8 3t-3.5 8zM563 -119q0 7 5 12t12 5t12.5 -5t5.5 -12t-5.5 -12.5t-12.5 -5.5t-12 5.5t-5 12.5zM376 -110q0 10 7 16.5t16.5 6.5t16.5 -6.5t7 -16.5t-7 -16.5
t-16.5 -6.5t-16.5 6.5t-7 16.5zM211 -25q0 12 8.5 20.5t20.5 8.5t20.5 -8.5t8.5 -20.5t-8.5 -20.5t-20.5 -8.5t-20.5 8.5t-8.5 20.5zM96 119.5q0 14.5 10 24.5t24.5 10t25 -10t10.5 -24.5t-10.5 -25t-25 -10.5t-24.5 10.5t-10 25zM53 296.5q0 16.5 12 28.5t28.5 12t28.5 -12
t12 -28q0 -17 -12 -29t-28.5 -12t-28.5 12t-12 28.5zM88 473q0 19 14 32.5t33 13.5t32.5 -13.5t13.5 -33t-13.5 -33t-32.5 -13.5t-33 13.5t-14 33.5zM195 615q0 21 15 36.5t36.5 15.5t37 -15.5t15.5 -37t-15.5 -37t-37 -15.5t-36.5 15.5t-15 37.5zM351 696q0 24 17 41t41 17
t40.5 -17t16.5 -41t-16.5 -41t-40.5 -17t-41 17t-17 41zM526 701.5q0 26.5 18.5 45t45 18.5t45 -18.5t18.5 -45.5q0 -26 -18.5 -45t-45 -19t-45 19t-18.5 45.5zM686 629q0 29 20.5 49.5t49 20.5t49 -20.5t20.5 -49.5t-20.5 -49.5t-49 -20.5t-49 20.5t-20.5 49.5zM800 493
q0 32 22 54t53 22t53.5 -22t22.5 -53.5t-22.5 -53.5t-53.5 -22t-53 22t-22 53zM845 318q0 34 24 57.5t57.5 23.5t57.5 -23.5t24 -57.5t-24 -57.5t-57.5 -23.5t-57.5 23.5t-24 57.5z" />
    <glyph glyph-name="uniE641" unicode="&#xe641;" 
d="M325 -50zM882 -50zM236 -65zM960 -65zM64 23zM958 23zM81 -66zM1023 -66zM37 -38zM481 512q0 29 21 50t51 21t51 -21t21 -50t-21 -50.5t-51 -21.5t-51 21.5t-21 50.5zM446 31q-58 8 -51 77q4 45 37 111q10 19 17 40t9 40.5t-5 32.5t-24 13q-8 0 -7 4q0 4 13 11
q62 33 102 28q30 -3 46 -24.5t15.5 -50.5t-15.5 -57q-24 -47 -38 -90t-7 -60q10 -21 66 -21q15 0 12 -6l-3 -3q-23 -22 -65 -37.5t-102 -7.5zM67 301q0 -186 130 -317q131 -130 317 -130t316 130q131 131 131 317t-131 316q-130 131 -316 131t-317 -131q-130 -130 -130 -316
zM990 -38z" />
    <glyph glyph-name="uniE642" unicode="&#xe642;" 
d="M793 513q-94 -11 -141 0q-13 3 -32 12.5t-37.5 21.5t-35 23.5t-27.5 19.5l-10 7q-96 -74 -139 -84q-21 -5 -56 -5t-60 2l-25 3q0 -6 -0.5 -16t0.5 -42.5t5 -65.5t15 -82.5t27 -95.5t46 -89.5t61 -72.5t61 -52t47.5 -34t18.5 -11q8 4 20 11.5t46 32.5t62.5 53t59.5 72
t47 90t27 95t15 83t5 66t0.5 42t-0.5 16zM662 235q-35 -100 -151 -184q-115 84 -150 184q-33 93 -41 192q43 1 72 7q46 11 119 61q75 -50 119 -61q30 -6 73 -7q-8 -98 -41 -192zM512 -212q-104 0 -199 40.5t-163.5 109t-109 163.5t-40.5 199t40.5 199t109 163.5t163.5 109
t199 40.5t199 -40.5t163.5 -109t109 -163.5t40.5 -199t-40.5 -199t-109 -163.5t-163.5 -109t-199 -40.5zM512 774q-96 0 -184 -37.5t-151.5 -101t-101 -151.5t-37.5 -184t37.5 -184t101 -151.5t151.5 -101t184 -37.5t184 37.5t151.5 101t101 151.5t37.5 184t-37.5 184
t-101 151.5t-151.5 101t-184 37.5z" />
    <glyph glyph-name="uniE643" unicode="&#xe643;" 
d="M68 289.5q0 -90.5 35 -172.5t94.5 -141.5t142 -94.5t172.5 -35t172.5 35t141.5 94.5t94.5 141.5t35.5 172.5t-35.5 172.5t-94.5 141.5t-141.5 95t-172.5 35.5t-172.5 -35.5t-142 -95t-94.5 -141.5t-35 -172.5zM374 290v1v1q1 17 13 29l163 150q13 12 30.5 11.5
t29.5 -13.5t11 -30.5t-14 -29.5l-129 -119l129 -120q13 -12 14 -29.5t-11 -30t-29.5 -13.5t-30.5 11l-163 150q-12 12 -13 29v2v1z" />
    <glyph glyph-name="uniE644" unicode="&#xe644;" 
d="M68 288q0 -90 35 -172.5t94.5 -141.5t141.5 -94.5t172.5 -35.5t172.5 35.5t141.5 94.5t94.5 141.5t35 172.5t-35 172.5t-94.5 141.5t-141.5 94.5t-172.5 35.5t-172.5 -35.5t-141.5 -94.5t-94.5 -141.5t-35 -172.5zM150 288q0 98 48.5 181t131.5 131.5t181 48.5t181 -48.5
t131.5 -131.5t48.5 -181t-48.5 -181t-131.5 -131.5t-181 -48.5t-181 48.5t-131.5 131.5t-48.5 181zM374 290v1q1 17 13 28l163 151q13 11 30.5 10.5t29 -13.5t11 -30.5t-13.5 -29.5l-129 -119l129 -119q13 -12 13.5 -29.5t-11 -30.5t-29 -13.5t-30.5 10.5l-163 151
q-12 11 -13 28l-1 1v1v1v1q0 1 1 1z" />
    <glyph glyph-name="uniE645" unicode="&#xe645;" 
d="M512 734q-90 0 -172.5 -35.5t-142 -95t-94.5 -141.5t-35 -172.5t35 -172.5t94.5 -141.5t142 -94.5t172.5 -35t172.5 35t141.5 94.5t94.5 141.5t35.5 172.5t-35.5 172.5t-94.5 141.5t-141.5 95t-172.5 35.5zM650 288v-1q-1 -17 -13 -29l-163 -150q-13 -12 -30.5 -11
t-29.5 13.5t-11.5 30t13.5 29.5l130 120l-130 119q-13 12 -13.5 29.5t11.5 30.5t29.5 13.5t30.5 -11.5l163 -150q12 -12 13 -29v-2v-2z" />
    <glyph glyph-name="uniE646" unicode="&#xe646;" 
d="M511.5 732q-90.5 0 -172.5 -35.5t-141.5 -94.5t-94.5 -141.5t-35 -172.5t35 -172.5t94.5 -141.5t141.5 -94.5t172.5 -35.5t172.5 35.5t141.5 94.5t94.5 141.5t35 172.5t-35 172.5t-94.5 141.5t-141.5 94.5t-172.5 35.5zM512 -73q-98 0 -181 48.5t-131 131.5t-48 181
t48 181t131 131.5t181 48.5t181.5 -48.5t131.5 -131.5t48 -181t-48 -181t-131.5 -131.5t-181.5 -48.5zM650 290v1q-1 17 -14 28l-162 151q-13 11 -30.5 10.5t-29.5 -13.5t-11.5 -30.5t13.5 -29.5l129 -119l-129 -119q-13 -12 -13.5 -29.5t11.5 -30.5t29.5 -13.5t30.5 10.5
l162 151q13 11 14 28v1v1v1v1v1z" />
    <glyph glyph-name="uniE647" unicode="&#xe647;" 
d="M511 749q-91 0 -173.5 -35.5t-142.5 -95.5t-95 -142.5t-35 -173.5t35 -173.5t95 -142t142.5 -95t173.5 -35.5t173.5 35.5t142.5 95t95 142t35 173.5t-35 173.5t-95 142.5t-142.5 95.5t-173.5 35.5zM588 124h-74v277q-40 -38 -95 -56v67q29 9 63 35.5t46 61.5h60v-385z
" />
    <glyph glyph-name="uniE648" unicode="&#xe648;" 
d="M512 -212q-104 0 -198 40.5t-162 108.5t-108.5 162.5t-40.5 198t40.5 197.5t108.5 162.5t162 108.5t198 40t198 -40t162 -108.5t108.5 -162.5t40.5 -197.5t-40.5 -198t-108.5 -162.5t-162 -108.5t-198 -40.5zM512 728q-117 0 -216 -57.5t-157 -157t-58 -216.5t58 -216
t157 -157t216 -58t216 58t157 157t58 216t-58 216.5t-157 157t-216 57.5zM424 169q22 35 85 94q50 47 62 64q16 23 16 46q0 25 -13.5 38.5t-37.5 13.5t-38 -14t-16 -47l-75 7q7 62 42.5 89t88.5 27q58 0 91 -31t33 -78q0 -26 -9 -50q-10 -24 -30 -50q-14 -18 -50 -50
q-35 -33 -45 -44t-15 -21h149v-70h-263q4 40 25 76z" />
    <glyph glyph-name="uniE649" unicode="&#xe649;" 
d="M238 771q-81 0 -138 -57.5t-57 -138t57 -137.5t138 -57t138 57t57 137.5t-57 138t-138 57.5zM317 549v-28h-61v-28h61v-28h-61v-23h-36v23h-60v28h60v28h-60v28h60v13l-86 148h39l65 -119l65 119h39l-86 -148v-13h61zM293.5 171q-48.5 0 -82.5 -34.5t-34 -83t34 -82.5
t82.5 -34t83 34t34.5 82.5t-34.5 83t-83 34.5zM341 38v-17h-36v-17h36v-16h-36v-15h-22v15h-36v16h36v17h-36v17h36v8l-52 88h24l39 -71l39 71h23l-51 -88v-8h36zM858.5 543q-48.5 0 -83 -34t-34.5 -82.5t34.5 -83t83 -34.5t83 34.5t34.5 83t-34.5 82.5t-83 34zM876 370h-25
v88h-30v17h3q17 0 25 8q7 6 7 15h20v-128zM697 506h-246q-13 0 -22 -9t-9 -22v-390q0 -13 9 -22t22 -9h246q13 0 22 9t9 22v390q0 13 -9 22t-22 9zM517 88q0 -6 -4.5 -10t-9.5 -4h-50q-6 0 -10 4t-4 10v50q0 5 4 9.5t10 4.5h50q5 0 9.5 -4.5t4.5 -9.5v-50zM517 181
q0 -6 -4.5 -10t-9.5 -4h-50q-6 0 -10 4t-4 10v49q0 6 4 10t10 4h50q5 0 9.5 -4t4.5 -10v-49zM517 277q0 -6 -4.5 -10t-9.5 -4h-50q-6 0 -10 4t-4 10v50q0 5 4 9.5t10 4.5h50q5 0 9.5 -4.5t4.5 -9.5v-50zM613 88q0 -6 -4 -10t-10 -4h-49q-6 0 -10.5 4t-4.5 10v50q0 5 4.5 9.5
t10.5 4.5h49q6 0 10 -4.5t4 -9.5v-50zM613 181q0 -6 -4 -10t-10 -4h-49q-6 0 -10.5 4t-4.5 10v49q0 6 4.5 10t10.5 4h49q6 0 10 -4t4 -10v-49zM613 277q0 -6 -4 -10t-10 -4h-49q-6 0 -10.5 4t-4.5 10v50q0 5 4.5 9.5t10.5 4.5h49q6 0 10 -4.5t4 -9.5v-50zM709 88
q0 -6 -4 -10t-10 -4h-49q-6 0 -10 4t-4 10v50q0 5 4 9.5t10 4.5h49q6 0 10 -4.5t4 -9.5v-50zM709 181q0 -6 -4 -10t-10 -4h-49q-6 0 -10 4t-4 10v49q0 6 4 10t10 4h49q6 0 10 -4t4 -10v-49zM709 277q0 -6 -4 -10t-10 -4h-49q-6 0 -10 4t-4 10v50q0 5 4 9.5t10 4.5h49
q6 0 10 -4.5t4 -9.5v-50zM709 415q0 -13 -9 -22t-21 -9h-209q-13 0 -22 9t-9 22v19q0 13 9 22t22 9h209q12 0 21 -9t9 -22v-19z" />
    <glyph glyph-name="uniE64A" unicode="&#xe64a;" horiz-adv-x="1537" 
d="M946 -180q39 0 66.5 27.5t27.5 66.5q0 44 -34 73l-301 301l299 298q36 29 36 75q0 39 -27.5 66.5t-66.5 27.5q-40 0 -68 -29l-377 -377h1q-23 -27 -23 -62q0 -42 31 -70l366 -366q28 -31 70 -31v0zM946 -180z" />
    <glyph glyph-name="uniE64B" unicode="&#xe64b;" horiz-adv-x="1537" 
d="M584 755q-39 0 -66.5 -27.5t-27.5 -66.5q0 -45 34 -73l301 -301l-299 -299q-36 -28 -36 -74q0 -39 27.5 -66.5t66.5 -27.5q40 0 68 29l377 376v1q23 26 23 61q0 43 -32 71l-365 365q-28 32 -71 32v0zM584 755z" />
    <glyph glyph-name="uniE64C" unicode="&#xe64c;" 
d="M308 560l272 -272l-272 -272q-18 -18 -18 -44.5t18.5 -45.5t45 -19t45.5 19l317 317q18 18 18 45t-18 45l-317 317q-19 19 -45.5 19t-45 -19t-18.5 -45.5t18 -44.5z" />
    <glyph glyph-name="uniE64D" unicode="&#xe64d;" 
d="M715.5 650q-18.5 19 -45 19t-45.5 -19l-317 -317q-18 -18 -18 -45t18 -45l317 -317q19 -19 45.5 -19t45 19t18.5 45.5t-18 44.5l-272 272l272 272q18 18 18 44.5t-18.5 45.5z" />
    <glyph glyph-name="uniE64E" unicode="&#xe64e;" horiz-adv-x="1000" 
d="M77 316h273v438h329v-438h273l-437 -437z" />
    <glyph glyph-name="uniE64F" unicode="&#xe64f;" 
d="M66 745v-889h889v889h-889zM800 256h-245v-245h-67v245h-244v67h244v244h67v-244h245v-67z" />
    <glyph glyph-name="uniE650" unicode="&#xe650;" 
d="M768 416h-512l256 -320z" />
    <glyph glyph-name="uniE651" unicode="&#xe651;" 
d="M63 749v-898h898v898h-898zM781 255h-561v67h561v-67z" />
  </font>
</defs>
</svg>
