<svg xmlns="http://www.w3.org/2000/svg" style="width:0; height:0; visibility:hidden;">
    <symbol id="foot_nav_home" viewBox="0 0 1024 1024">
       <path d="M1024 207.52 512 604.896 0 207.52 0 369.504l512 397.44 512-397.44L1024 207.52zM896 221.92l0-384-256 0 0 256L384 93.92l0-256L128-162.08l0 384 384 288L896 221.92z" transform="translate(0, 812) scale(1, -1)"/> 
    </symbol>
    <symbol id="foot_nav_list" viewBox="0 0 1024 1024">
       <path d="M874.362446-140.243723 146.240177-140.243723c-23.195282 0-41.992393 18.793018-41.992393 41.874713L104.247784 627.44775c0 23.159466 18.797112 41.87369 41.992393 41.87369l70.02689 0 0-41.87369c0-46.237067 37.594223-83.748403 83.98888-83.748403 46.433542 0 84.024695 37.511335 84.024695 83.748403l0 41.87369 41.996486 0 0-41.87369c0-46.237067 37.630039-83.748403 84.024695-83.748403 46.393633 0 83.983763 37.511335 83.983763 83.748403l0 41.87369 42.032302 0 0-41.87369c0-46.237067 37.594223-83.748403 83.98888-83.748403 46.393633 0 84.023672 37.511335 84.023672 83.748403l0 41.87369 70.032006 0c23.194258 0 41.99137-18.714224 41.99137-41.87369l0-725.81676C916.353816-121.450704 897.556705-140.243723 874.362446-140.243723zM762.33907 432.038222 258.263553 432.038222c-23.198352 0-41.996486-18.718317-41.996486-41.87369 0-23.080671 18.797112-41.87369 41.996486-41.87369l504.075517 0c23.199375 0 41.992393 18.794042 41.992393 41.87369C804.331463 413.319905 785.537422 432.038222 762.33907 432.038222zM762.33907 250.58352 258.263553 250.58352c-23.198352 0-41.996486-18.718317-41.996486-41.874713 0-23.080671 18.797112-41.874713 41.996486-41.874713l504.075517 0c23.199375 0 41.992393 18.794042 41.992393 41.874713C804.331463 231.865203 785.537422 250.58352 762.33907 250.58352zM769.318018 69.128819 251.284605 69.128819c-19.352767 0-35.016515-15.625886-35.016515-34.898835 0-19.269879 15.664771-34.891671 35.016515-34.891671l518.033413 0c19.348674 0 35.013445 15.621792 35.013445 34.891671C804.331463 53.502933 788.666692 69.128819 769.318018 69.128819zM720.306768 585.574061c-23.159466 0-41.992393 18.797112-41.992393 41.87369L678.314375 711.196153c0 23.159466 18.832927 41.874713 41.992393 41.874713 23.237237 0 42.031279-18.715247 42.031279-41.874713l0-83.748403C762.33907 604.370149 743.544005 585.574061 720.306768 585.574061zM510.301823 585.574061c-23.199375 0-41.993416 18.797112-41.993416 41.87369L468.308407 711.196153c0 23.159466 18.794042 41.874713 41.993416 41.874713 23.195282 0 41.99137-18.715247 41.99137-41.874713l0-83.748403C552.293193 604.370149 533.497105 585.574061 510.301823 585.574061zM300.255946 585.574061c-23.198352 0-41.992393 18.797112-41.992393 41.87369L258.263553 711.196153c0 23.159466 18.794042 41.874713 41.992393 41.874713s42.032302-18.715247 42.032302-41.874713l0-83.748403C342.288249 604.370149 323.454298 585.574061 300.255946 585.574061z" transform="translate(0, 812) scale(1, -1)"/> 
    </symbol>
    <symbol id="foot_nav_my" viewBox="0 0 1024 1024">
       <path d="M854.510345 677.82069c-208.331034 190.675862-533.186207 173.02069-720.331034-35.310345s-173.02069-533.186207 35.310345-720.331034c208.331034-190.675862 533.186207-173.02069 720.331034 35.310345C1080.496552 165.82069 1062.841379 490.675862 854.510345 677.82069zM840.386207 3.393103c-162.427586-180.082759-444.910345-194.206897-624.993103-31.77931C35.310345 137.572414 21.186207 416.524138 187.144828 600.137931c162.427586 180.082759 444.910345 194.206897 624.993103 31.77931C988.689655 465.958621 1002.813793 183.475862 840.386207 3.393103zM776.827586 593.075862C617.931034 741.37931 367.227586 727.255172 218.924138 568.358621 74.151724 405.931034 84.744828 155.227586 247.172414 10.455172c162.427586-144.772414 413.131034-134.17931 557.903448 28.248276C949.848276 197.6 939.255172 448.303448 776.827586 593.075862zM681.489655 342.372414l0-49.434483-123.586207-3.531034 0-70.62069 123.586207 3.531034 0-49.434483-123.586207-3.531034-3.531034-187.144828-63.558621 0 3.531034 187.144828-127.117241-3.531034 0 49.434483 127.117241 3.531034 0 70.62069-127.117241-3.531034 0 49.434483 109.462069 0L342.510345 564.827586l70.62069 0c63.558621-112.993103 102.4-183.613793 116.524138-211.862069l0 0c3.531034 14.124138 17.655172 38.841379 35.310345 77.682759l74.151724 141.241379 67.089655 0-130.648276-229.517241L681.489655 342.372414z" transform="translate(0, 812) scale(1, -1)"/> 
    </symbol>
    <symbol id="foot_nav_set" viewBox="0 0 1024 1024">
       <path d="M448 428c0-35.2-28.8-64-64-64L64 364C28.8 364 0 392.8 0 428L0 748c0 35.2 28.8 64 64 64l320 0c35.2 0 64-28.8 64-64L448 428zM1024 428c0-35.2-28.8-64-64-64l-320 0C604.8 364 576 392.8 576 428L576 748c0 35.2 28.8 64 64 64l320 0c35.2 0 64-28.8 64-64L1024 428zM448-148c0-35.2-28.8-64-64-64L64-212c-35.2 0-64 28.8-64 64l0 320c0 35.2 28.8 64 64 64l320 0c35.2 0 64-28.8 64-64L448-148zM1024-148c0-35.2-28.8-64-64-64l-320 0c-35.2 0-64 28.8-64 64l0 320c0 35.2 28.8 64 64 64l320 0c35.2 0 64-28.8 64-64L1024-148z" transform="translate(0, 812) scale(1, -1)"/> 
    </symbol></svg>